<svg xmlns="http://www.w3.org/2000/svg" viewBox="0 0 1200 630" width="1200" height="630">
  <defs>
    <!-- Gradient Background -->
    <linearGradient id="bgGradient" x1="0%" y1="0%" x2="100%" y2="100%">
      <stop offset="0%" style="stop-color:#0f172a"/>
      <stop offset="50%" style="stop-color:#1e293b"/>
      <stop offset="100%" style="stop-color:#10b981"/>
    </linearGradient>

    <!-- Glow Effect -->
    <filter id="glow" x="-50%" y="-50%" width="200%" height="200%">
      <feGaussianBlur stdDeviation="3" result="coloredBlur"/>
      <feMerge>
        <feMergeNode in="coloredBlur"/>
        <feMergeNode in="SourceGraphic"/>
      </feMerge>
    </filter>

    <!-- Chain Link Gradient -->
    <linearGradient id="chainGradient" x1="0%" y1="0%" x2="100%" y2="0%">
      <stop offset="0%" style="stop-color:#10b981"/>
      <stop offset="100%" style="stop-color:#34d399"/>
    </linearGradient>

    <!-- Node Gradient -->
    <linearGradient id="nodeGradient" x1="0%" y1="0%" x2="0%" y2="100%">
      <stop offset="0%" style="stop-color:#34d399"/>
      <stop offset="100%" style="stop-color:#10b981"/>
    </linearGradient>
  </defs>

  <!-- Background -->
  <rect width="1200" height="630" fill="url(#bgGradient)"/>

  <!-- Grid Pattern -->
  <g opacity="0.1">
    <pattern id="grid" width="40" height="40" patternUnits="userSpaceOnUse">
      <path d="M 40 0 L 0 0 0 40" fill="none" stroke="#10b981" stroke-width="1"/>
    </pattern>
    <rect width="1200" height="630" fill="url(#grid)"/>
  </g>

  <!-- Decorative Circles -->
  <circle cx="100" cy="100" r="200" fill="#10b981" opacity="0.05"/>
  <circle cx="1100" cy="530" r="250" fill="#10b981" opacity="0.05"/>

  <!-- LangChain Visual - Chain Links -->
  <g transform="translate(80, 200)">
    <!-- Chain connections -->
    <path d="M 120 100 Q 180 100, 220 100" stroke="url(#chainGradient)" stroke-width="4" fill="none" opacity="0.8"/>
    <path d="M 320 100 Q 380 100, 420 100" stroke="url(#chainGradient)" stroke-width="4" fill="none" opacity="0.8"/>
    <path d="M 520 100 Q 580 100, 620 100" stroke="url(#chainGradient)" stroke-width="4" fill="none" opacity="0.8"/>

    <!-- Animated dots on chain -->
    <circle cx="170" cy="100" r="6" fill="#34d399" filter="url(#glow)">
      <animate attributeName="cx" values="130;210;130" dur="2s" repeatCount="indefinite"/>
    </circle>
    <circle cx="370" cy="100" r="6" fill="#34d399" filter="url(#glow)">
      <animate attributeName="cx" values="330;410;330" dur="2s" repeatCount="indefinite" begin="0.3s"/>
    </circle>
    <circle cx="570" cy="100" r="6" fill="#34d399" filter="url(#glow)">
      <animate attributeName="cx" values="530;610;530" dur="2s" repeatCount="indefinite" begin="0.6s"/>
    </circle>

    <!-- Node 1: Prompt -->
    <g transform="translate(20, 50)">
      <rect x="0" y="0" width="100" height="100" rx="12" fill="#1e293b" stroke="#10b981" stroke-width="2"/>
      <text x="50" y="45" text-anchor="middle" fill="#10b981" font-family="system-ui, sans-serif" font-size="24">P</text>
      <text x="50" y="75" text-anchor="middle" fill="#94a3b8" font-family="system-ui, sans-serif" font-size="11">Prompt</text>
    </g>

    <!-- Node 2: Model -->
    <g transform="translate(220, 50)">
      <rect x="0" y="0" width="100" height="100" rx="12" fill="#1e293b" stroke="#10b981" stroke-width="2"/>
      <text x="50" y="45" text-anchor="middle" fill="#10b981" font-family="system-ui, sans-serif" font-size="24">M</text>
      <text x="50" y="75" text-anchor="middle" fill="#94a3b8" font-family="system-ui, sans-serif" font-size="11">Model</text>
    </g>

    <!-- Node 3: Chain -->
    <g transform="translate(420, 50)">
      <rect x="0" y="0" width="100" height="100" rx="12" fill="#1e293b" stroke="#10b981" stroke-width="2"/>
      <text x="50" y="45" text-anchor="middle" fill="#10b981" font-family="system-ui, sans-serif" font-size="24">C</text>
      <text x="50" y="75" text-anchor="middle" fill="#94a3b8" font-family="system-ui, sans-serif" font-size="11">Chain</text>
    </g>

    <!-- Node 4: Output -->
    <g transform="translate(620, 50)">
      <rect x="0" y="0" width="100" height="100" rx="12" fill="#10b981" stroke="#34d399" stroke-width="2"/>
      <text x="50" y="45" text-anchor="middle" fill="#0f172a" font-family="system-ui, sans-serif" font-size="24">O</text>
      <text x="50" y="75" text-anchor="middle" fill="#0f172a" font-family="system-ui, sans-serif" font-size="11">Output</text>
    </g>
  </g>

  <!-- Pipe Operator Symbol -->
  <g transform="translate(850, 230)">
    <rect x="0" y="0" width="60" height="60" rx="8" fill="#0f172a" stroke="#10b981" stroke-width="2"/>
    <text x="30" y="42" text-anchor="middle" fill="#10b981" font-family="monospace" font-size="32" font-weight="bold">|</text>
  </g>

  <!-- LCEL Label -->
  <text x="880" y="320" text-anchor="middle" fill="#94a3b8" font-family="system-ui, sans-serif" font-size="14">LCEL</text>

  <!-- Main Title -->
  <text x="600" y="450" text-anchor="middle" fill="#ffffff" font-family="system-ui, -apple-system, sans-serif" font-size="52" font-weight="800">
    LangChain Complete Guide
  </text>

  <!-- Subtitle -->
  <text x="600" y="500" text-anchor="middle" fill="#94a3b8" font-family="system-ui, sans-serif" font-size="24">
    Build AI Applications from Scratch
  </text>

  <!-- Year Badge -->
  <g transform="translate(540, 520)">
    <rect x="0" y="0" width="120" height="36" rx="18" fill="#10b981"/>
    <text x="60" y="25" text-anchor="middle" fill="#0f172a" font-family="system-ui, sans-serif" font-size="18" font-weight="700">2026</text>
  </g>

  <!-- Branding -->
  <g transform="translate(40, 560)">
    <text x="0" y="0" fill="#64748b" font-family="system-ui, sans-serif" font-size="16">brainupgrade-in.github.io</text>
  </g>

  <!-- Logo Mark -->
  <g transform="translate(1080, 540)">
    <path d="M40 10 L10 25 L40 40 L70 25 Z" fill="none" stroke="#10b981" stroke-width="2" stroke-linejoin="round"/>
    <path d="M10 35 L40 50 L70 35" fill="none" stroke="#10b981" stroke-width="2" stroke-linecap="round" stroke-linejoin="round"/>
    <path d="M10 45 L40 60 L70 45" fill="none" stroke="#10b981" stroke-width="2" stroke-linecap="round" stroke-linejoin="round"/>
  </g>
</svg>
