<svg xmlns="http://www.w3.org/2000/svg" viewBox="0 0 900 560" font-family="'SF Pro Display', 'Segoe UI', system-ui, sans-serif">
  <defs>
    <style>
      @keyframes fadeIn { from { opacity: 0; } to { opacity: 1; } }
      @keyframes slideUp { from { opacity: 0; transform: translateY(20px); } to { opacity: 1; transform: translateY(0); } }
      @keyframes typewriter { from { width: 0; } to { width: 100%; } }
      @keyframes pulse { 0%,100% { opacity: 0.4; } 50% { opacity: 1; } }
      @keyframes cursorBlink { 0%,100% { opacity: 1; } 50% { opacity: 0; } }
      @keyframes streamIn { from { opacity: 0; transform: translateX(-5px); } to { opacity: 1; transform: translateX(0); } }
      @keyframes fillFlash { 0% { fill: #22d3a8; opacity: 0.8; } 100% { fill: #16161d; opacity: 1; } }
      @keyframes checkmark { from { stroke-dashoffset: 20; } to { stroke-dashoffset: 0; } }
      @keyframes sceneSwitch { 0%,28% { opacity: 1; } 30%,100% { opacity: 0; } }
      @keyframes scene2 { 0%,30% { opacity: 0; } 32%,58% { opacity: 1; } 60%,100% { opacity: 0; } }
      @keyframes scene3 { 0%,60% { opacity: 0; } 62%,88% { opacity: 1; } 90%,100% { opacity: 0; } }
      @keyframes scene4 { 0%,90% { opacity: 0; } 92%,100% { opacity: 1; } }
      @keyframes loopAll { 0%,95% { opacity: 1; } 97%,100% { opacity: 0; } }
    </style>

    <!-- Rounded rect clip -->
    <clipPath id="browserClip"><rect x="0" y="0" width="900" height="560" rx="16"/></clipPath>
    <clipPath id="panelClip"><rect x="560" y="60" width="340" height="500" rx="0"/></clipPath>

    <!-- Gradients -->
    <linearGradient id="headerGrad" x1="0" y1="0" x2="0" y2="1">
      <stop offset="0%" stop-color="#1e293b"/>
      <stop offset="100%" stop-color="#0f172a"/>
    </linearGradient>
    <linearGradient id="accentGrad" x1="0" y1="0" x2="1" y2="1">
      <stop offset="0%" stop-color="#22d3a8"/>
      <stop offset="100%" stop-color="#06b6d4"/>
    </linearGradient>
  </defs>

  <!-- Background -->
  <rect width="900" height="560" rx="16" fill="#0a0a0f"/>

  <!-- ============================================================ -->
  <!-- SCENE 1: User asks about page (0s - 6s)                      -->
  <!-- ============================================================ -->
  <g style="animation: sceneSwitch 20s infinite">

    <!-- Browser chrome -->
    <rect x="0" y="0" width="900" height="40" rx="16" fill="url(#headerGrad)"/>
    <rect x="0" y="20" width="900" height="20" fill="url(#headerGrad)"/>
    <circle cx="20" cy="20" r="6" fill="#ff5f57"/>
    <circle cx="40" cy="20" r="6" fill="#febc2e"/>
    <circle cx="60" cy="20" r="6" fill="#28c840"/>

    <!-- Tab bar -->
    <rect x="100" y="8" width="160" height="26" rx="6" fill="#1a1a2e"/>
    <text x="130" y="26" font-size="10" fill="#94a3b8">devops.gheware.com</text>

    <!-- URL bar -->
    <rect x="100" y="42" width="400" height="22" rx="4" fill="#16161d"/>
    <text x="110" y="57" font-size="10" fill="#64748b">https://devops.gheware.com/agentgrow/</text>

    <!-- Page content (left) -->
    <rect x="20" y="75" width="520" height="470" rx="8" fill="#0e0e11"/>

    <!-- Page headings -->
    <rect x="40" y="95" width="280" height="16" rx="3" fill="#e8e8f0" opacity="0.9"/>
    <text x="40" y="108" font-size="13" font-weight="700" fill="#0e0e11">AgentGrow Privacy Policy</text>

    <rect x="40" y="130" width="460" height="8" rx="2" fill="#3a3a4a"/>
    <rect x="40" y="145" width="420" height="8" rx="2" fill="#3a3a4a"/>
    <rect x="40" y="160" width="440" height="8" rx="2" fill="#3a3a4a"/>
    <rect x="40" y="175" width="380" height="8" rx="2" fill="#3a3a4a"/>

    <!-- Email-like content on page -->
    <rect x="40" y="200" width="200" height="12" rx="2" fill="#8888a8"/>
    <text x="40" y="211" font-size="10" fill="#22d3a8">privacy@gheware.com</text>
    <rect x="40" y="225" width="200" height="12" rx="2" fill="#8888a8"/>
    <text x="40" y="236" font-size="10" fill="#22d3a8">contact@gheware.com</text>
    <rect x="40" y="250" width="200" height="12" rx="2" fill="#8888a8"/>
    <text x="40" y="261" font-size="10" fill="#22d3a8">security@gheware.com</text>

    <rect x="40" y="285" width="460" height="8" rx="2" fill="#3a3a4a"/>
    <rect x="40" y="300" width="420" height="8" rx="2" fill="#3a3a4a"/>

    <!-- ─── Side Panel ─── -->
    <rect x="555" y="60" width="345" height="500" fill="#0e0e11" rx="0"/>
    <line x1="555" y1="60" x2="555" y2="560" stroke="#2a2a35" stroke-width="1"/>

    <!-- Panel header -->
    <rect x="555" y="60" width="345" height="38" fill="#16161d"/>
    <circle cx="575" cy="79" r="8" fill="#2a2a35"/>
    <text x="590" y="83" font-size="11" font-weight="700" fill="#e8e8f0">AgentGrow</text>
    <rect x="720" y="72" width="90" height="16" rx="4" fill="#1a1a2e"/>
    <text x="728" y="83" font-size="8" font-family="monospace" fill="#8888a8">Groq › llama</text>
    <circle cx="875" cy="79" r="10" fill="#3a3a4a"/>

    <!-- Chat area - greeting -->
    <text x="680" y="140" font-size="12" font-weight="600" fill="#e8e8f0" text-anchor="middle">Hello, Rajesh!</text>
    <text x="680" y="158" font-size="10" fill="#8888a8" text-anchor="middle">Ask anything about the page</text>

    <!-- User message (appears) -->
    <g style="animation: slideUp 0.5s ease 1s both">
      <rect x="640" y="200" width="240" height="36" rx="14" fill="rgba(34,211,168,0.15)"/>
      <text x="655" y="223" font-size="11" fill="#e8e8f0">List all emails on this page</text>
    </g>

    <!-- AI response (streams in) -->
    <g style="animation: slideUp 0.5s ease 2s both">
      <rect x="570" y="250" width="260" height="110" rx="14" fill="#16161d" stroke="#2a2a35" stroke-width="1"/>
      <text x="585" y="272" font-size="11" fill="#e8e8f0" font-weight="600" style="animation: streamIn 0.3s ease 2.5s both">Found 3 emails:</text>
      <text x="585" y="292" font-size="10" fill="#22d3a8" style="animation: streamIn 0.3s ease 2.8s both">privacy@gheware.com</text>
      <text x="585" y="310" font-size="10" fill="#22d3a8" style="animation: streamIn 0.3s ease 3.1s both">contact@gheware.com</text>
      <text x="585" y="328" font-size="10" fill="#22d3a8" style="animation: streamIn 0.3s ease 3.4s both">security@gheware.com</text>
      <text x="585" y="350" font-size="9" fill="#8888a8" style="animation: streamIn 0.3s ease 3.7s both">just now</text>
    </g>

    <!-- Auto-context indicator -->
    <rect x="570" y="495" width="310" height="30" rx="8" fill="#16161d" stroke="#2a2a35" stroke-width="1"/>
    <rect x="570" y="530" width="310" height="22" rx="0" fill="#16161d"/>
    <text x="592" y="514" font-size="9" fill="#8888a8">📄 Page context auto-included</text>

    <!-- Input area -->
    <rect x="570" y="525" width="310" height="30" rx="12" fill="#0e0e11" stroke="#2a2a35" stroke-width="1"/>
    <text x="585" y="544" font-size="10" fill="#3a3a4a">Ask anything…</text>

    <!-- Scene label -->
    <rect x="300" y="520" width="210" height="30" rx="15" fill="url(#accentGrad)" opacity="0.9" style="animation: fadeIn 0.5s ease 0.5s both"/>
    <text x="405" y="540" font-size="11" font-weight="700" fill="#0a0a0f" text-anchor="middle" style="animation: fadeIn 0.5s ease 0.5s both">1. Ask About Any Page</text>
  </g>

  <!-- ============================================================ -->
  <!-- SCENE 2: Form filling (6s - 12s)                             -->
  <!-- ============================================================ -->
  <g style="animation: scene2 20s infinite">

    <!-- Browser chrome -->
    <rect x="0" y="0" width="900" height="40" rx="16" fill="url(#headerGrad)"/>
    <rect x="0" y="20" width="900" height="20" fill="url(#headerGrad)"/>
    <circle cx="20" cy="20" r="6" fill="#ff5f57"/>
    <circle cx="40" cy="20" r="6" fill="#febc2e"/>
    <circle cx="60" cy="20" r="6" fill="#28c840"/>
    <rect x="100" y="8" width="140" height="26" rx="6" fill="#1a1a2e"/>
    <text x="120" y="26" font-size="10" fill="#94a3b8">Job Application</text>
    <rect x="100" y="42" width="400" height="22" rx="4" fill="#16161d"/>
    <text x="110" y="57" font-size="10" fill="#64748b">https://careers.example.com/apply</text>

    <!-- Form on page -->
    <rect x="20" y="75" width="520" height="470" rx="8" fill="#0e0e11"/>
    <text x="40" y="110" font-size="15" font-weight="700" fill="#e8e8f0">Software Engineer Application</text>

    <!-- Form fields -->
    <text x="40" y="145" font-size="9" fill="#8888a8" text-transform="uppercase" letter-spacing="1">FULL NAME</text>
    <rect x="40" y="152" width="460" height="32" rx="6" fill="#16161d" stroke="#2a2a35"/>
    <text x="55" y="173" font-size="12" fill="#22d3a8" style="animation: streamIn 0.4s ease 2s both">Rajesh Gheware</text>

    <text x="40" y="205" font-size="9" fill="#8888a8">EMAIL</text>
    <rect x="40" y="212" width="460" height="32" rx="6" fill="#16161d" stroke="#2a2a35"/>
    <text x="55" y="233" font-size="12" fill="#22d3a8" style="animation: streamIn 0.4s ease 2.3s both">rajesh@gheware.com</text>

    <text x="40" y="265" font-size="9" fill="#8888a8">EXPERIENCE</text>
    <rect x="40" y="272" width="460" height="32" rx="6" fill="#16161d" stroke="#2a2a35"/>
    <text x="55" y="293" font-size="12" fill="#22d3a8" style="animation: streamIn 0.4s ease 2.6s both">25+ years</text>

    <text x="40" y="325" font-size="9" fill="#8888a8">COVER NOTE</text>
    <rect x="40" y="332" width="460" height="80" rx="6" fill="#16161d" stroke="#2a2a35"/>
    <text x="55" y="355" font-size="11" fill="#22d3a8" style="animation: streamIn 0.4s ease 2.9s both">Experienced platform engineer with</text>
    <text x="55" y="372" font-size="11" fill="#22d3a8" style="animation: streamIn 0.4s ease 3.2s both">deep expertise in Kubernetes, CI/CD,</text>
    <text x="55" y="389" font-size="11" fill="#22d3a8" style="animation: streamIn 0.4s ease 3.5s both">and cloud-native architectures…</text>

    <!-- Success checkmark -->
    <g style="animation: fadeIn 0.5s ease 4s both">
      <circle cx="270" cy="450" r="20" fill="none" stroke="#22d3a8" stroke-width="2"/>
      <polyline points="260,450 268,458 282,443" fill="none" stroke="#22d3a8" stroke-width="2.5" stroke-linecap="round" stroke-linejoin="round" style="stroke-dasharray: 20; animation: checkmark 0.4s ease 4.2s both"/>
      <text x="270" y="485" font-size="11" fill="#22d3a8" text-anchor="middle" font-weight="600">4 fields filled</text>
    </g>

    <!-- Side Panel -->
    <rect x="555" y="60" width="345" height="500" fill="#0e0e11"/>
    <line x1="555" y1="60" x2="555" y2="560" stroke="#2a2a35"/>
    <rect x="555" y="60" width="345" height="38" fill="#16161d"/>
    <text x="590" y="83" font-size="11" font-weight="700" fill="#e8e8f0">AgentGrow</text>

    <!-- User message -->
    <g style="animation: slideUp 0.5s ease 0.5s both">
      <rect x="610" y="120" width="270" height="52" rx="14" fill="rgba(34,211,168,0.15)"/>
      <text x="625" y="140" font-size="11" fill="#e8e8f0">Fill this job application form</text>
      <text x="625" y="156" font-size="11" fill="#e8e8f0">with my details</text>
    </g>

    <!-- AI response -->
    <g style="animation: slideUp 0.5s ease 1.5s both">
      <rect x="570" y="185" width="260" height="65" rx="14" fill="#16161d" stroke="#2a2a35"/>
      <text x="585" y="207" font-size="11" fill="#e8e8f0">I'll fill in the form with your</text>
      <text x="585" y="223" font-size="11" fill="#e8e8f0">details. Filling 4 fields…</text>
      <text x="585" y="242" font-size="9" fill="#8888a8">just now</text>
    </g>

    <!-- Fill confirmation -->
    <g style="animation: fadeIn 0.5s ease 4s both">
      <rect x="570" y="265" width="240" height="32" rx="14" fill="#16161d" stroke="#22d3a8" stroke-width="1" opacity="0.8"/>
      <text x="585" y="286" font-size="11" fill="#22d3a8">✓ Filled 4 fields on the page</text>
    </g>

    <!-- Scene label -->
    <rect x="300" y="520" width="210" height="30" rx="15" fill="url(#accentGrad)" opacity="0.9"/>
    <text x="405" y="540" font-size="11" font-weight="700" fill="#0a0a0f" text-anchor="middle">2. Auto-Fill Any Form</text>
  </g>

  <!-- ============================================================ -->
  <!-- SCENE 3: Model switching (12s - 18s)                         -->
  <!-- ============================================================ -->
  <g style="animation: scene3 20s infinite">

    <!-- Browser chrome -->
    <rect x="0" y="0" width="900" height="40" rx="16" fill="url(#headerGrad)"/>
    <rect x="0" y="20" width="900" height="20" fill="url(#headerGrad)"/>
    <circle cx="20" cy="20" r="6" fill="#ff5f57"/>
    <circle cx="40" cy="20" r="6" fill="#febc2e"/>
    <circle cx="60" cy="20" r="6" fill="#28c840"/>
    <rect x="100" y="8" width="140" height="26" rx="6" fill="#1a1a2e"/>
    <text x="120" y="26" font-size="10" fill="#94a3b8">Gmail</text>
    <rect x="100" y="42" width="400" height="22" rx="4" fill="#16161d"/>
    <text x="110" y="57" font-size="10" fill="#64748b">https://mail.google.com/</text>

    <!-- Gmail-like compose on page -->
    <rect x="20" y="75" width="520" height="470" rx="8" fill="#0e0e11"/>
    <rect x="40" y="95" width="480" height="350" rx="8" fill="#16161d" stroke="#2a2a35"/>
    <text x="60" y="120" font-size="12" font-weight="600" fill="#e8e8f0">New Message</text>
    <line x1="40" y1="132" x2="520" y2="132" stroke="#2a2a35"/>
    <text x="60" y="152" font-size="10" fill="#8888a8">To: client@company.com</text>
    <line x1="40" y1="165" x2="520" y2="165" stroke="#2a2a35"/>
    <text x="60" y="185" font-size="10" fill="#8888a8">Subject: Q2 Project Update</text>
    <line x1="40" y1="198" x2="520" y2="198" stroke="#2a2a35"/>

    <!-- Email body being typed -->
    <text x="60" y="225" font-size="11" fill="#22d3a8" style="animation: streamIn 0.3s ease 2.5s both">Hi Sarah,</text>
    <text x="60" y="245" font-size="11" fill="#22d3a8" style="animation: streamIn 0.3s ease 2.8s both">I wanted to share a quick update on</text>
    <text x="60" y="263" font-size="11" fill="#22d3a8" style="animation: streamIn 0.3s ease 3.1s both">the Q2 deliverables. We've completed</text>
    <text x="60" y="281" font-size="11" fill="#22d3a8" style="animation: streamIn 0.3s ease 3.4s both">the migration ahead of schedule...</text>

    <!-- Side Panel -->
    <rect x="555" y="60" width="345" height="500" fill="#0e0e11"/>
    <line x1="555" y1="60" x2="555" y2="560" stroke="#2a2a35"/>
    <rect x="555" y="60" width="345" height="38" fill="#16161d"/>
    <text x="590" y="83" font-size="11" font-weight="700" fill="#e8e8f0">AgentGrow</text>

    <!-- Model dropdown open -->
    <rect x="700" y="72" width="110" height="16" rx="4" fill="#1a1a2e" stroke="#22d3a8" stroke-width="1"/>
    <text x="708" y="83" font-size="8" font-family="monospace" fill="#22d3a8">Groq › llama ▾</text>

    <!-- Dropdown menu -->
    <g style="animation: fadeIn 0.3s ease 0.5s both">
      <rect x="660" y="92" width="160" height="130" rx="8" fill="#16161d" stroke="#2a2a35"/>
      <text x="675" y="110" font-size="8" fill="#8888a8" font-weight="600" letter-spacing="1">GROQ</text>
      <text x="675" y="128" font-size="10" fill="#22d3a8">✓ llama-3.1-70b</text>
      <text x="690" y="144" font-size="10" fill="#e8e8f0">  llama-3.3-70b</text>
      <text x="690" y="160" font-size="10" fill="#e8e8f0">  mixtral-8x7b</text>
      <text x="675" y="180" font-size="8" fill="#8888a8" font-weight="600" letter-spacing="1">OPENAI</text>
      <text x="690" y="196" font-size="10" fill="#e8e8f0">  gpt-4o</text>
      <text x="690" y="212" font-size="10" fill="#e8e8f0">  gpt-4o-mini</text>
    </g>

    <!-- Chat -->
    <g style="animation: slideUp 0.5s ease 1s both">
      <rect x="610" y="240" width="270" height="52" rx="14" fill="rgba(34,211,168,0.15)"/>
      <text x="625" y="260" font-size="11" fill="#e8e8f0">Draft a project update email</text>
      <text x="625" y="276" font-size="11" fill="#e8e8f0">to Sarah about Q2 progress</text>
    </g>

    <g style="animation: slideUp 0.5s ease 2s both">
      <rect x="570" y="305" width="260" height="50" rx="14" fill="#16161d" stroke="#2a2a35"/>
      <text x="585" y="325" font-size="11" fill="#e8e8f0">Here's a professional draft.</text>
      <text x="585" y="342" font-size="11" fill="#e8e8f0">Writing to compose box…</text>
    </g>

    <!-- Scene label -->
    <rect x="270" y="520" width="260" height="30" rx="15" fill="url(#accentGrad)" opacity="0.9"/>
    <text x="400" y="540" font-size="11" font-weight="700" fill="#0a0a0f" text-anchor="middle">3. Draft Emails &amp; Switch Models</text>
  </g>

  <!-- ============================================================ -->
  <!-- SCENE 4: Provider setup (18s - 20s, loops)                   -->
  <!-- ============================================================ -->
  <g style="animation: scene4 20s infinite">

    <!-- Full panel view -->
    <rect x="0" y="0" width="900" height="560" rx="16" fill="#0e0e11"/>

    <!-- Center card -->
    <rect x="200" y="80" width="500" height="400" rx="16" fill="#16161d" stroke="#2a2a35"/>

    <text x="450" y="130" font-size="18" font-weight="700" fill="#e8e8f0" text-anchor="middle">Works with Any LLM</text>
    <text x="450" y="155" font-size="12" fill="#8888a8" text-anchor="middle">7 built-in presets. Add your own endpoint.</text>

    <!-- Provider grid -->
    <g transform="translate(240, 180)">
      <!-- Row 1 -->
      <rect x="0" y="0" width="125" height="55" rx="10" fill="#1a1a2e" stroke="#2a2a35"/>
      <text x="62" y="25" font-size="13" text-anchor="middle" fill="#e8e8f0">🔀 OpenRouter</text>
      <text x="62" y="43" font-size="9" text-anchor="middle" fill="#8888a8">300+ models</text>

      <rect x="145" y="0" width="125" height="55" rx="10" fill="#1a1a2e" stroke="#2a2a35"/>
      <text x="207" y="25" font-size="13" text-anchor="middle" fill="#e8e8f0">⬡ OpenAI</text>
      <text x="207" y="43" font-size="9" text-anchor="middle" fill="#8888a8">GPT-4o, o1</text>

      <rect x="290" y="0" width="125" height="55" rx="10" fill="#1a1a2e" stroke="#2a2a35"/>
      <text x="352" y="25" font-size="13" text-anchor="middle" fill="#e8e8f0">◆ Anthropic</text>
      <text x="352" y="43" font-size="9" text-anchor="middle" fill="#8888a8">Claude 4</text>

      <!-- Row 2 -->
      <rect x="0" y="75" width="125" height="55" rx="10" fill="#1a1a2e" stroke="#22d3a8" stroke-width="1.5"/>
      <text x="62" y="100" font-size="13" text-anchor="middle" fill="#22d3a8">⚡ Groq</text>
      <text x="62" y="118" font-size="9" text-anchor="middle" fill="#8888a8">Ultra-fast</text>

      <rect x="145" y="75" width="125" height="55" rx="10" fill="#1a1a2e" stroke="#2a2a35"/>
      <text x="207" y="100" font-size="13" text-anchor="middle" fill="#e8e8f0">✦ Gemini</text>
      <text x="207" y="118" font-size="9" text-anchor="middle" fill="#8888a8">Google AI</text>

      <rect x="290" y="75" width="125" height="55" rx="10" fill="#1a1a2e" stroke="#2a2a35"/>
      <text x="352" y="100" font-size="13" text-anchor="middle" fill="#e8e8f0">🦙 Ollama</text>
      <text x="352" y="118" font-size="9" text-anchor="middle" fill="#8888a8">Local / Free</text>
    </g>

    <!-- Bottom tagline -->
    <text x="450" y="430" font-size="14" fill="#22d3a8" text-anchor="middle" font-weight="600">No subscriptions. No vendor lock-in.</text>
    <text x="450" y="455" font-size="11" fill="#8888a8" text-anchor="middle">Open source · Privacy-first · Your keys, your data</text>

    <!-- Scene label -->
    <rect x="300" y="490" width="210" height="30" rx="15" fill="url(#accentGrad)" opacity="0.9"/>
    <text x="405" y="510" font-size="11" font-weight="700" fill="#0a0a0f" text-anchor="middle">4. Any LLM Provider</text>
  </g>

  <!-- Loop indicator dots -->
  <g transform="translate(410, 548)">
    <circle cx="0" cy="0" r="3" fill="#22d3a8" style="animation: sceneSwitch 20s infinite"/>
    <circle cx="14" cy="0" r="3" fill="#3a3a4a"/>
    <circle cx="14" cy="0" r="3" fill="#22d3a8" style="animation: scene2 20s infinite"/>
    <circle cx="28" cy="0" r="3" fill="#3a3a4a"/>
    <circle cx="28" cy="0" r="3" fill="#22d3a8" style="animation: scene3 20s infinite"/>
    <circle cx="42" cy="0" r="3" fill="#3a3a4a"/>
    <circle cx="42" cy="0" r="3" fill="#22d3a8" style="animation: scene4 20s infinite"/>
  </g>

</svg>
